<svg id="visual" viewBox="0 0 900 600" width="900" height="600" xmlns="http://www.w3.org/2000/svg" xmlns:xlink="http://www.w3.org/1999/xlink" version="1.1"><rect x="0" y="0" width="900" height="600" fill="#001220"></rect><defs><linearGradient id="grad1_0" x1="33.3%" y1="0%" x2="100%" y2="100%"><stop offset="20%" stop-color="#9cf74f" stop-opacity="1"></stop><stop offset="80%" stop-color="#9cf74f" stop-opacity="1"></stop></linearGradient></defs><defs><linearGradient id="grad1_1" x1="33.3%" y1="0%" x2="100%" y2="100%"><stop offset="20%" stop-color="#9cf74f" stop-opacity="1"></stop><stop offset="80%" stop-color="#00ac84" stop-opacity="1"></stop></linearGradient></defs><defs><linearGradient id="grad1_2" x1="33.3%" y1="0%" x2="100%" y2="100%"><stop offset="20%" stop-color="#005a70" stop-opacity="1"></stop><stop offset="80%" stop-color="#00ac84" stop-opacity="1"></stop></linearGradient></defs><defs><linearGradient id="grad1_3" x1="33.3%" y1="0%" x2="100%" y2="100%"><stop offset="20%" stop-color="#005a70" stop-opacity="1"></stop><stop offset="80%" stop-color="#001220" stop-opacity="1"></stop></linearGradient></defs><defs><linearGradient id="grad2_0" x1="0%" y1="0%" x2="66.7%" y2="100%"><stop offset="20%" stop-color="#9cf74f" stop-opacity="1"></stop><stop offset="80%" stop-color="#9cf74f" stop-opacity="1"></stop></linearGradient></defs><defs><linearGradient id="grad2_1" x1="0%" y1="0%" x2="66.7%" y2="100%"><stop offset="20%" stop-color="#00ac84" stop-opacity="1"></stop><stop offset="80%" stop-color="#9cf74f" stop-opacity="1"></stop></linearGradient></defs><defs><linearGradient id="grad2_2" x1="0%" y1="0%" x2="66.7%" y2="100%"><stop offset="20%" stop-color="#00ac84" stop-opacity="1"></stop><stop offset="80%" stop-color="#005a70" stop-opacity="1"></stop></linearGradient></defs><defs><linearGradient id="grad2_3" x1="0%" y1="0%" x2="66.7%" y2="100%"><stop offset="20%" stop-color="#001220" stop-opacity="1"></stop><stop offset="80%" stop-color="#005a70" stop-opacity="1"></stop></linearGradient></defs><g transform="translate(900, 0)"><path d="M0 405.6C-42.2 374.2 -84.3 342.8 -135.9 328C-187.4 313.1 -248.3 314.9 -286.8 286.8C-325.3 258.8 -341.5 200.9 -357.5 148.1C-373.6 95.3 -389.6 47.7 -405.6 0L0 0Z" fill="#00344c"></path><path d="M0 304.2C-31.6 280.7 -63.2 257.1 -101.9 246C-140.5 234.9 -186.2 236.2 -215.1 215.1C-244 194.1 -256.1 150.7 -268.2 111.1C-280.2 71.5 -292.2 35.7 -304.2 0L0 0Z" fill="#008384"></path><path d="M0 202.8C-21.1 187.1 -42.2 171.4 -67.9 164C-93.7 156.6 -124.1 157.4 -143.4 143.4C-162.7 129.4 -170.7 100.4 -178.8 74C-186.8 47.7 -194.8 23.8 -202.8 0L0 0Z" fill="#12d471"></path><path d="M0 101.4C-10.5 93.6 -21.1 85.7 -34 82C-46.8 78.3 -62.1 78.7 -71.7 71.7C-81.3 64.7 -85.4 50.2 -89.4 37C-93.4 23.8 -97.4 11.9 -101.4 0L0 0Z" fill="#9cf74f"></path></g><g transform="translate(0, 600)"><path d="M0 -405.6C49 -394.3 98 -382.9 151.9 -366.8C205.9 -350.7 264.8 -329.8 286.8 -286.8C308.9 -243.9 294 -178.9 307.7 -127.4C321.3 -76 363.5 -38 405.6 0L0 0Z" fill="#00344c"></path><path d="M0 -304.2C36.7 -295.7 73.5 -287.2 113.9 -275.1C154.4 -263 198.6 -247.3 215.1 -215.1C231.6 -182.9 220.5 -134.2 230.7 -95.6C241 -57 272.6 -28.5 304.2 0L0 0Z" fill="#008384"></path><path d="M0 -202.8C24.5 -197.1 49 -191.5 76 -183.4C102.9 -175.3 132.4 -164.9 143.4 -143.4C154.4 -121.9 147 -89.5 153.8 -63.7C160.7 -38 181.7 -19 202.8 0L0 0Z" fill="#12d471"></path><path d="M0 -101.4C12.2 -98.6 24.5 -95.7 38 -91.7C51.5 -87.7 66.2 -82.4 71.7 -71.7C77.2 -61 73.5 -44.7 76.9 -31.9C80.3 -19 90.9 -9.5 101.4 0L0 0Z" fill="#9cf74f"></path></g></svg>