<svg id="visual" viewBox="0 0 900 600" width="900" height="600" xmlns="http://www.w3.org/2000/svg" xmlns:xlink="http://www.w3.org/1999/xlink" version="1.1"><rect x="0" y="0" width="900" height="600" fill="#001220"></rect><defs><linearGradient id="grad1_0" x1="33.3%" y1="0%" x2="100%" y2="100%"><stop offset="20%" stop-color="#f74fa1" stop-opacity="1"></stop><stop offset="80%" stop-color="#f74fa1" stop-opacity="1"></stop></linearGradient></defs><defs><linearGradient id="grad1_1" x1="33.3%" y1="0%" x2="100%" y2="100%"><stop offset="20%" stop-color="#f74fa1" stop-opacity="1"></stop><stop offset="80%" stop-color="#8b4795" stop-opacity="1"></stop></linearGradient></defs><defs><linearGradient id="grad1_2" x1="33.3%" y1="0%" x2="100%" y2="100%"><stop offset="20%" stop-color="#2e3362" stop-opacity="1"></stop><stop offset="80%" stop-color="#8b4795" stop-opacity="1"></stop></linearGradient></defs><defs><linearGradient id="grad1_3" x1="33.3%" y1="0%" x2="100%" y2="100%"><stop offset="20%" stop-color="#2e3362" stop-opacity="1"></stop><stop offset="80%" stop-color="#001220" stop-opacity="1"></stop></linearGradient></defs><defs><linearGradient id="grad2_0" x1="0%" y1="0%" x2="66.7%" y2="100%"><stop offset="20%" stop-color="#f74fa1" stop-opacity="1"></stop><stop offset="80%" stop-color="#f74fa1" stop-opacity="1"></stop></linearGradient></defs><defs><linearGradient id="grad2_1" x1="0%" y1="0%" x2="66.7%" y2="100%"><stop offset="20%" stop-color="#8b4795" stop-opacity="1"></stop><stop offset="80%" stop-color="#f74fa1" stop-opacity="1"></stop></linearGradient></defs><defs><linearGradient id="grad2_2" x1="0%" y1="0%" x2="66.7%" y2="100%"><stop offset="20%" stop-color="#8b4795" stop-opacity="1"></stop><stop offset="80%" stop-color="#2e3362" stop-opacity="1"></stop></linearGradient></defs><defs><linearGradient id="grad2_3" x1="0%" y1="0%" x2="66.7%" y2="100%"><stop offset="20%" stop-color="#001220" stop-opacity="1"></stop><stop offset="80%" stop-color="#2e3362" stop-opacity="1"></stop></linearGradient></defs><g transform="translate(900, 0)"><path d="M0 405.6C-55.1 396 -110.1 386.4 -148.1 357.5C-186.1 328.6 -207 280.5 -246.8 246.8C-286.5 213.1 -345.1 193.9 -374.7 155.2C-404.4 116.5 -405 58.3 -405.6 0L0 0Z" fill="#0e2441"></path><path d="M0 304.2C-41.3 297 -82.6 289.8 -111.1 268.2C-139.6 246.5 -155.3 210.3 -185.1 185.1C-214.9 159.8 -258.9 145.5 -281.1 116.4C-303.3 87.4 -303.7 43.7 -304.2 0L0 0Z" fill="#583f7f"></path><path d="M0 202.8C-27.5 198 -55.1 193.2 -74 178.8C-93 164.3 -103.5 140.2 -123.4 123.4C-143.3 106.6 -172.6 97 -187.4 77.6C-202.2 58.3 -202.5 29.1 -202.8 0L0 0Z" fill="#c14ca0"></path><path d="M0 101.4C-13.8 99 -27.5 96.6 -37 89.4C-46.5 82.2 -51.8 70.1 -61.7 61.7C-71.6 53.3 -86.3 48.5 -93.7 38.8C-101.1 29.1 -101.2 14.6 -101.4 0L0 0Z" fill="#f74fa1"></path></g><g transform="translate(0, 600)"><path d="M0 -405.6C59.2 -406.9 118.5 -408.1 155.2 -374.7C192 -341.4 206.3 -273.4 229.1 -229.1C251.9 -184.8 283.3 -164.3 314.1 -130.1C345 -95.9 375.3 -47.9 405.6 0L0 0Z" fill="#0e2441"></path><path d="M0 -304.2C44.4 -305.2 88.8 -306.1 116.4 -281.1C144 -256 154.7 -205 171.8 -171.8C188.9 -138.6 212.5 -123.3 235.6 -97.6C258.7 -71.9 281.5 -36 304.2 0L0 0Z" fill="#583f7f"></path><path d="M0 -202.8C29.6 -203.4 59.2 -204.1 77.6 -187.4C96 -170.7 103.1 -136.7 114.6 -114.6C126 -92.4 141.6 -82.2 157.1 -65.1C172.5 -47.9 187.6 -24 202.8 0L0 0Z" fill="#c14ca0"></path><path d="M0 -101.4C14.8 -101.7 29.6 -102 38.8 -93.7C48 -85.3 51.6 -68.3 57.3 -57.3C63 -46.2 70.8 -41.1 78.5 -32.5C86.2 -24 93.8 -12 101.4 0L0 0Z" fill="#f74fa1"></path></g></svg>