<svg id="visual" viewBox="0 0 900 600" width="900" height="600" xmlns="http://www.w3.org/2000/svg" xmlns:xlink="http://www.w3.org/1999/xlink" version="1.1"><rect x="0" y="0" width="900" height="600" fill="#001220"></rect><defs><linearGradient id="grad1_0" x1="33.3%" y1="0%" x2="100%" y2="100%"><stop offset="20%" stop-color="#f74f4f" stop-opacity="1"></stop><stop offset="80%" stop-color="#f74f4f" stop-opacity="1"></stop></linearGradient></defs><defs><linearGradient id="grad1_1" x1="33.3%" y1="0%" x2="100%" y2="100%"><stop offset="20%" stop-color="#f74f4f" stop-opacity="1"></stop><stop offset="80%" stop-color="#a33373" stop-opacity="1"></stop></linearGradient></defs><defs><linearGradient id="grad1_2" x1="33.3%" y1="0%" x2="100%" y2="100%"><stop offset="20%" stop-color="#3c2e5d" stop-opacity="1"></stop><stop offset="80%" stop-color="#a33373" stop-opacity="1"></stop></linearGradient></defs><defs><linearGradient id="grad1_3" x1="33.3%" y1="0%" x2="100%" y2="100%"><stop offset="20%" stop-color="#3c2e5d" stop-opacity="1"></stop><stop offset="80%" stop-color="#001220" stop-opacity="1"></stop></linearGradient></defs><defs><linearGradient id="grad2_0" x1="0%" y1="0%" x2="66.7%" y2="100%"><stop offset="20%" stop-color="#f74f4f" stop-opacity="1"></stop><stop offset="80%" stop-color="#f74f4f" stop-opacity="1"></stop></linearGradient></defs><defs><linearGradient id="grad2_1" x1="0%" y1="0%" x2="66.7%" y2="100%"><stop offset="20%" stop-color="#a33373" stop-opacity="1"></stop><stop offset="80%" stop-color="#f74f4f" stop-opacity="1"></stop></linearGradient></defs><defs><linearGradient id="grad2_2" x1="0%" y1="0%" x2="66.7%" y2="100%"><stop offset="20%" stop-color="#a33373" stop-opacity="1"></stop><stop offset="80%" stop-color="#3c2e5d" stop-opacity="1"></stop></linearGradient></defs><defs><linearGradient id="grad2_3" x1="0%" y1="0%" x2="66.7%" y2="100%"><stop offset="20%" stop-color="#001220" stop-opacity="1"></stop><stop offset="80%" stop-color="#3c2e5d" stop-opacity="1"></stop></linearGradient></defs><g transform="translate(900, 0)"><path d="M0 405.6C-61.3 407.7 -122.6 409.8 -155.2 374.7C-187.8 339.6 -191.7 267.3 -229.1 229.1C-266.5 190.9 -337.3 186.7 -372.3 154.2C-407.3 121.7 -406.5 60.9 -405.6 0L0 0Z" fill="#142241"></path><path d="M0 304.2C-46 305.8 -92 307.4 -116.4 281.1C-140.9 254.7 -143.8 200.5 -171.8 171.8C-199.9 143.2 -253 140 -279.2 115.7C-305.5 91.3 -304.9 45.6 -304.2 0L0 0Z" fill="#6e336f"></path><path d="M0 202.8C-30.7 203.9 -61.3 204.9 -77.6 187.4C-93.9 169.8 -95.9 133.7 -114.6 114.6C-133.2 95.4 -168.7 93.4 -186.2 77.1C-203.7 60.9 -203.2 30.4 -202.8 0L0 0Z" fill="#d33867"></path><path d="M0 101.4C-15.3 101.9 -30.7 102.5 -38.8 93.7C-47 84.9 -47.9 66.8 -57.3 57.3C-66.6 47.7 -84.3 46.7 -93.1 38.6C-101.8 30.4 -101.6 15.2 -101.4 0L0 0Z" fill="#f74f4f"></path></g><g transform="translate(0, 600)"><path d="M0 -405.6C51.9 -391.1 103.8 -376.7 145.8 -352C187.8 -327.3 219.9 -292.5 260.2 -260.2C300.6 -227.9 349.1 -198.2 374.7 -155.2C400.4 -112.3 403 -56.1 405.6 0L0 0Z" fill="#142241"></path><path d="M0 -304.2C38.9 -293.4 77.9 -282.5 109.4 -264C140.8 -245.5 164.9 -219.4 195.2 -195.2C225.4 -170.9 261.9 -148.6 281.1 -116.4C300.3 -84.2 302.2 -42.1 304.2 0L0 0Z" fill="#6e336f"></path><path d="M0 -202.8C26 -195.6 51.9 -188.3 72.9 -176C93.9 -163.7 109.9 -146.3 130.1 -130.1C150.3 -114 174.6 -99.1 187.4 -77.6C200.2 -56.1 201.5 -28.1 202.8 0L0 0Z" fill="#d33867"></path><path d="M0 -101.4C13 -97.8 26 -94.2 36.5 -88C46.9 -81.8 55 -73.1 65.1 -65.1C75.1 -57 87.3 -49.5 93.7 -38.8C100.1 -28.1 100.7 -14 101.4 0L0 0Z" fill="#f74f4f"></path></g></svg>