<svg id="visual" viewBox="0 0 900 600" width="900" height="600" xmlns="http://www.w3.org/2000/svg" xmlns:xlink="http://www.w3.org/1999/xlink" version="1.1"><rect x="0" y="0" width="900" height="600" fill="#001220"></rect><defs><linearGradient id="grad1_0" x1="33.3%" y1="0%" x2="100%" y2="100%"><stop offset="20%" stop-color="#4facf7" stop-opacity="1"></stop><stop offset="80%" stop-color="#4facf7" stop-opacity="1"></stop></linearGradient></defs><defs><linearGradient id="grad1_1" x1="33.3%" y1="0%" x2="100%" y2="100%"><stop offset="20%" stop-color="#4facf7" stop-opacity="1"></stop><stop offset="80%" stop-color="#3174a8" stop-opacity="1"></stop></linearGradient></defs><defs><linearGradient id="grad1_2" x1="33.3%" y1="0%" x2="100%" y2="100%"><stop offset="20%" stop-color="#174060" stop-opacity="1"></stop><stop offset="80%" stop-color="#3174a8" stop-opacity="1"></stop></linearGradient></defs><defs><linearGradient id="grad1_3" x1="33.3%" y1="0%" x2="100%" y2="100%"><stop offset="20%" stop-color="#174060" stop-opacity="1"></stop><stop offset="80%" stop-color="#001220" stop-opacity="1"></stop></linearGradient></defs><defs><linearGradient id="grad2_0" x1="0%" y1="0%" x2="66.7%" y2="100%"><stop offset="20%" stop-color="#4facf7" stop-opacity="1"></stop><stop offset="80%" stop-color="#4facf7" stop-opacity="1"></stop></linearGradient></defs><defs><linearGradient id="grad2_1" x1="0%" y1="0%" x2="66.7%" y2="100%"><stop offset="20%" stop-color="#3174a8" stop-opacity="1"></stop><stop offset="80%" stop-color="#4facf7" stop-opacity="1"></stop></linearGradient></defs><defs><linearGradient id="grad2_2" x1="0%" y1="0%" x2="66.7%" y2="100%"><stop offset="20%" stop-color="#3174a8" stop-opacity="1"></stop><stop offset="80%" stop-color="#174060" stop-opacity="1"></stop></linearGradient></defs><defs><linearGradient id="grad2_3" x1="0%" y1="0%" x2="66.7%" y2="100%"><stop offset="20%" stop-color="#001220" stop-opacity="1"></stop><stop offset="80%" stop-color="#174060" stop-opacity="1"></stop></linearGradient></defs><g transform="translate(900, 0)"><path d="M0 405.6C-48.7 378.9 -97.4 352.2 -133.9 323.4C-170.5 294.5 -195 263.4 -238.3 238.3C-281.6 213.2 -343.7 194 -374.7 155.2C-405.8 116.5 -405.7 58.2 -405.6 0L0 0Z" fill="#0b283e"></path><path d="M0 304.2C-36.5 284.2 -73 264.2 -100.5 242.5C-127.9 220.9 -146.2 197.6 -178.7 178.7C-211.2 159.9 -257.8 145.5 -281.1 116.4C-304.3 87.4 -304.3 43.7 -304.2 0L0 0Z" fill="#245983"></path><path d="M0 202.8C-24.3 189.5 -48.7 176.1 -67 161.7C-85.3 147.2 -97.5 131.7 -119.1 119.1C-140.8 106.6 -171.9 97 -187.4 77.6C-202.9 58.2 -202.8 29.1 -202.8 0L0 0Z" fill="#408fcf"></path><path d="M0 101.4C-12.2 94.7 -24.3 88.1 -33.5 80.8C-42.6 73.6 -48.7 65.9 -59.6 59.6C-70.4 53.3 -85.9 48.5 -93.7 38.8C-101.4 29.1 -101.4 14.6 -101.4 0L0 0Z" fill="#4facf7"></path></g><g transform="translate(0, 600)"><path d="M0 -405.6C54.7 -394 109.5 -382.3 145.8 -352C182.1 -321.7 200.1 -272.7 240.4 -240.4C280.8 -208.1 343.5 -192.5 374.7 -155.2C406 -117.9 405.8 -59 405.6 0L0 0Z" fill="#0b283e"></path><path d="M0 -304.2C41 -295.5 82.1 -286.7 109.4 -264C136.6 -241.3 150.1 -204.5 180.3 -180.3C210.6 -156.1 257.6 -144.4 281.1 -116.4C304.5 -88.5 304.4 -44.2 304.2 0L0 0Z" fill="#245983"></path><path d="M0 -202.8C27.4 -197 54.7 -191.2 72.9 -176C91.1 -160.8 100 -136.4 120.2 -120.2C140.4 -104.1 171.7 -96.3 187.4 -77.6C203 -59 202.9 -29.5 202.8 0L0 0Z" fill="#408fcf"></path><path d="M0 -101.4C13.7 -98.5 27.4 -95.6 36.5 -88C45.5 -80.4 50 -68.2 60.1 -60.1C70.2 -52 85.9 -48.1 93.7 -38.8C101.5 -29.5 101.5 -14.7 101.4 0L0 0Z" fill="#4facf7"></path></g></svg>