<svg id="visual" viewBox="0 0 900 600" width="900" height="600" xmlns="http://www.w3.org/2000/svg" xmlns:xlink="http://www.w3.org/1999/xlink" version="1.1"><rect x="0" y="0" width="900" height="600" fill="#001220"></rect><defs><linearGradient id="grad1_0" x1="33.3%" y1="0%" x2="100%" y2="100%"><stop offset="20%" stop-color="#bf4ff7" stop-opacity="1"></stop><stop offset="80%" stop-color="#bf4ff7" stop-opacity="1"></stop></linearGradient></defs><defs><linearGradient id="grad1_1" x1="33.3%" y1="0%" x2="100%" y2="100%"><stop offset="20%" stop-color="#bf4ff7" stop-opacity="1"></stop><stop offset="80%" stop-color="#4c4dbc" stop-opacity="1"></stop></linearGradient></defs><defs><linearGradient id="grad1_2" x1="33.3%" y1="0%" x2="100%" y2="100%"><stop offset="20%" stop-color="#00346e" stop-opacity="1"></stop><stop offset="80%" stop-color="#4c4dbc" stop-opacity="1"></stop></linearGradient></defs><defs><linearGradient id="grad1_3" x1="33.3%" y1="0%" x2="100%" y2="100%"><stop offset="20%" stop-color="#00346e" stop-opacity="1"></stop><stop offset="80%" stop-color="#001220" stop-opacity="1"></stop></linearGradient></defs><defs><linearGradient id="grad2_0" x1="0%" y1="0%" x2="66.7%" y2="100%"><stop offset="20%" stop-color="#bf4ff7" stop-opacity="1"></stop><stop offset="80%" stop-color="#bf4ff7" stop-opacity="1"></stop></linearGradient></defs><defs><linearGradient id="grad2_1" x1="0%" y1="0%" x2="66.7%" y2="100%"><stop offset="20%" stop-color="#4c4dbc" stop-opacity="1"></stop><stop offset="80%" stop-color="#bf4ff7" stop-opacity="1"></stop></linearGradient></defs><defs><linearGradient id="grad2_2" x1="0%" y1="0%" x2="66.7%" y2="100%"><stop offset="20%" stop-color="#4c4dbc" stop-opacity="1"></stop><stop offset="80%" stop-color="#00346e" stop-opacity="1"></stop></linearGradient></defs><defs><linearGradient id="grad2_3" x1="0%" y1="0%" x2="66.7%" y2="100%"><stop offset="20%" stop-color="#001220" stop-opacity="1"></stop><stop offset="80%" stop-color="#00346e" stop-opacity="1"></stop></linearGradient></defs><g transform="translate(900, 0)"><path d="M0 405.6C-59.8 406.9 -119.6 408.3 -155.2 374.7C-190.8 341.2 -202.2 272.9 -231.2 231.2C-260.3 189.5 -307 174.5 -339.1 140.4C-371.1 106.4 -388.4 53.2 -405.6 0L0 0Z" fill="#002446"></path><path d="M0 304.2C-44.9 305.2 -89.7 306.2 -116.4 281.1C-143.1 255.9 -151.6 204.7 -173.4 173.4C-195.2 142.2 -230.3 130.9 -254.3 105.3C-278.3 79.8 -291.3 39.9 -304.2 0L0 0Z" fill="#174296"></path><path d="M0 202.8C-29.9 203.5 -59.8 204.1 -77.6 187.4C-95.4 170.6 -101.1 136.4 -115.6 115.6C-130.1 94.8 -153.5 87.3 -169.5 70.2C-185.5 53.2 -194.2 26.6 -202.8 0L0 0Z" fill="#8352dd"></path><path d="M0 101.4C-15 101.7 -29.9 102.1 -38.8 93.7C-47.7 85.3 -50.5 68.2 -57.8 57.8C-65.1 47.4 -76.8 43.6 -84.8 35.1C-92.8 26.6 -97.1 13.3 -101.4 0L0 0Z" fill="#bf4ff7"></path></g><g transform="translate(0, 600)"><path d="M0 -405.6C41.2 -364.8 82.5 -324 125.1 -302.1C167.8 -280.2 211.9 -277.2 257.4 -257.4C302.9 -237.6 349.8 -200.9 374.7 -155.2C399.7 -109.5 402.7 -54.8 405.6 0L0 0Z" fill="#002446"></path><path d="M0 -304.2C30.9 -273.6 61.9 -243 93.9 -226.6C125.8 -210.2 158.9 -207.9 193 -193C227.2 -178.2 262.4 -150.7 281.1 -116.4C299.8 -82.1 302 -41.1 304.2 0L0 0Z" fill="#174296"></path><path d="M0 -202.8C20.6 -182.4 41.2 -162 62.6 -151.1C83.9 -140.1 105.9 -138.6 128.7 -128.7C151.4 -118.8 174.9 -100.5 187.4 -77.6C199.8 -54.8 201.3 -27.4 202.8 0L0 0Z" fill="#8352dd"></path><path d="M0 -101.4C10.3 -91.2 20.6 -81 31.3 -75.5C41.9 -70.1 53 -69.3 64.3 -64.3C75.7 -59.4 87.5 -50.2 93.7 -38.8C99.9 -27.4 100.7 -13.7 101.4 0L0 0Z" fill="#bf4ff7"></path></g></svg>