<svg id="visual" viewBox="0 0 900 600" width="900" height="600" xmlns="http://www.w3.org/2000/svg" xmlns:xlink="http://www.w3.org/1999/xlink" version="1.1"><rect x="0" y="0" width="900" height="600" fill="#001220"></rect><defs><linearGradient id="grad1_0" x1="33.3%" y1="0%" x2="100%" y2="100%"><stop offset="20%" stop-color="#715df2" stop-opacity="1"></stop><stop offset="80%" stop-color="#715df2" stop-opacity="1"></stop></linearGradient></defs><defs><linearGradient id="grad1_1" x1="33.3%" y1="0%" x2="100%" y2="100%"><stop offset="20%" stop-color="#715df2" stop-opacity="1"></stop><stop offset="80%" stop-color="#004cae" stop-opacity="1"></stop></linearGradient></defs><defs><linearGradient id="grad1_2" x1="33.3%" y1="0%" x2="100%" y2="100%"><stop offset="20%" stop-color="#003165" stop-opacity="1"></stop><stop offset="80%" stop-color="#004cae" stop-opacity="1"></stop></linearGradient></defs><defs><linearGradient id="grad1_3" x1="33.3%" y1="0%" x2="100%" y2="100%"><stop offset="20%" stop-color="#003165" stop-opacity="1"></stop><stop offset="80%" stop-color="#001220" stop-opacity="1"></stop></linearGradient></defs><defs><linearGradient id="grad2_0" x1="0%" y1="0%" x2="66.7%" y2="100%"><stop offset="20%" stop-color="#715df2" stop-opacity="1"></stop><stop offset="80%" stop-color="#715df2" stop-opacity="1"></stop></linearGradient></defs><defs><linearGradient id="grad2_1" x1="0%" y1="0%" x2="66.7%" y2="100%"><stop offset="20%" stop-color="#004cae" stop-opacity="1"></stop><stop offset="80%" stop-color="#715df2" stop-opacity="1"></stop></linearGradient></defs><defs><linearGradient id="grad2_2" x1="0%" y1="0%" x2="66.7%" y2="100%"><stop offset="20%" stop-color="#004cae" stop-opacity="1"></stop><stop offset="80%" stop-color="#003165" stop-opacity="1"></stop></linearGradient></defs><defs><linearGradient id="grad2_3" x1="0%" y1="0%" x2="66.7%" y2="100%"><stop offset="20%" stop-color="#001220" stop-opacity="1"></stop><stop offset="80%" stop-color="#003165" stop-opacity="1"></stop></linearGradient></defs><g transform="translate(900, 0)"><path d="M0 405.6C-54.9 402.1 -109.9 398.5 -155.2 374.7C-200.6 351 -236.3 306.9 -265.2 265.2C-294 223.4 -315.9 183.9 -338.1 140.1C-360.4 96.2 -383 48.1 -405.6 0L0 0Z" fill="#002241"></path><path d="M0 304.2C-41.2 301.6 -82.4 298.9 -116.4 281.1C-150.4 263.2 -177.3 230.2 -198.9 198.9C-220.5 167.5 -236.9 137.9 -253.6 105C-270.3 72.2 -287.3 36.1 -304.2 0L0 0Z" fill="#003f8a"></path><path d="M0 202.8C-27.5 201 -54.9 199.3 -77.6 187.4C-100.3 175.5 -118.2 153.5 -132.6 132.6C-147 111.7 -157.9 91.9 -169.1 70C-180.2 48.1 -191.5 24.1 -202.8 0L0 0Z" fill="#4056d1"></path><path d="M0 101.4C-13.7 100.5 -27.5 99.6 -38.8 93.7C-50.1 87.7 -59.1 76.7 -66.3 66.3C-73.5 55.8 -79 46 -84.5 35C-90.1 24.1 -95.8 12 -101.4 0L0 0Z" fill="#715df2"></path></g><g transform="translate(0, 600)"><path d="M0 -405.6C57.8 -402.9 115.6 -400.1 153.5 -370.5C191.3 -340.9 209.1 -284.4 247.5 -247.5C285.9 -210.6 345 -193.2 374.7 -155.2C404.5 -117.2 405.1 -58.6 405.6 0L0 0Z" fill="#002241"></path><path d="M0 -304.2C43.4 -302.1 86.7 -300.1 115.1 -277.9C143.5 -255.6 156.8 -213.3 185.6 -185.6C214.4 -157.9 258.7 -144.9 281.1 -116.4C303.4 -87.9 303.8 -44 304.2 0L0 0Z" fill="#003f8a"></path><path d="M0 -202.8C28.9 -201.4 57.8 -200 76.7 -185.2C95.6 -170.4 104.5 -142.2 123.7 -123.7C143 -105.3 172.5 -96.6 187.4 -77.6C202.3 -58.6 202.5 -29.3 202.8 0L0 0Z" fill="#4056d1"></path><path d="M0 -101.4C14.5 -100.7 28.9 -100 38.4 -92.6C47.8 -85.2 52.3 -71.1 61.9 -61.9C71.5 -52.6 86.2 -48.3 93.7 -38.8C101.1 -29.3 101.3 -14.7 101.4 0L0 0Z" fill="#715df2"></path></g></svg>